<mxfile host="app.diagrams.net" modified="2023-04-18T21:54:36.855Z" agent="Mozilla/5.0 (Windows NT 10.0; Win64; x64) AppleWebKit/537.36 (KHTML, like Gecko) Chrome/112.0.0.0 Safari/537.36" etag="unhVrRZf4eX0hweFcxPZ" version="21.1.9" type="github">
  <diagram name="Page-1" id="9Lfv9pEum5qfzDpED2gu">
    <mxGraphModel dx="2537" dy="889" grid="1" gridSize="10" guides="1" tooltips="1" connect="1" arrows="1" fold="1" page="1" pageScale="1" pageWidth="850" pageHeight="1100" math="0" shadow="0">
      <root>
        <mxCell id="0" />
        <mxCell id="1" parent="0" />
        <mxCell id="faDCZ2szutkNi9MoBmBI-1" value="" style="ellipse;html=1;shape=startState;fillColor=#000000;strokeColor=#ff0000;" parent="1" vertex="1">
          <mxGeometry x="410" y="30" width="30" height="30" as="geometry" />
        </mxCell>
        <mxCell id="faDCZ2szutkNi9MoBmBI-2" value="" style="edgeStyle=orthogonalEdgeStyle;html=1;verticalAlign=bottom;endArrow=open;endSize=8;strokeColor=#ff0000;rounded=0;" parent="1" source="faDCZ2szutkNi9MoBmBI-1" edge="1">
          <mxGeometry relative="1" as="geometry">
            <mxPoint x="425" y="120" as="targetPoint" />
          </mxGeometry>
        </mxCell>
        <mxCell id="faDCZ2szutkNi9MoBmBI-3" value="User is either registered or &lt;br&gt;unregistered" style="rounded=1;whiteSpace=wrap;html=1;" parent="1" vertex="1">
          <mxGeometry x="365" y="120" width="120" height="60" as="geometry" />
        </mxCell>
        <mxCell id="faDCZ2szutkNi9MoBmBI-4" value="" style="endArrow=none;html=1;rounded=0;entryX=0.5;entryY=1;entryDx=0;entryDy=0;" parent="1" target="faDCZ2szutkNi9MoBmBI-3" edge="1">
          <mxGeometry width="50" height="50" relative="1" as="geometry">
            <mxPoint x="425" y="240" as="sourcePoint" />
            <mxPoint x="430" y="280" as="targetPoint" />
          </mxGeometry>
        </mxCell>
        <mxCell id="faDCZ2szutkNi9MoBmBI-5" value="" style="endArrow=none;html=1;rounded=0;" parent="1" edge="1">
          <mxGeometry width="50" height="50" relative="1" as="geometry">
            <mxPoint x="510" y="242" as="sourcePoint" />
            <mxPoint x="70" y="242" as="targetPoint" />
            <Array as="points">
              <mxPoint x="300" y="242" />
            </Array>
          </mxGeometry>
        </mxCell>
        <mxCell id="faDCZ2szutkNi9MoBmBI-6" value="User Log&amp;nbsp;in Success" style="text;html=1;align=center;verticalAlign=middle;resizable=0;points=[];autosize=1;strokeColor=none;fillColor=none;" parent="1" vertex="1">
          <mxGeometry x="75" y="210" width="130" height="30" as="geometry" />
        </mxCell>
        <mxCell id="faDCZ2szutkNi9MoBmBI-7" value="User Registration Sucess" style="text;html=1;align=center;verticalAlign=middle;resizable=0;points=[];autosize=1;strokeColor=none;fillColor=none;" parent="1" vertex="1">
          <mxGeometry x="440" y="210" width="160" height="30" as="geometry" />
        </mxCell>
        <mxCell id="faDCZ2szutkNi9MoBmBI-9" value="" style="endArrow=classic;html=1;rounded=0;" parent="1" source="faDCZ2szutkNi9MoBmBI-10" edge="1">
          <mxGeometry width="50" height="50" relative="1" as="geometry">
            <mxPoint x="510" y="242" as="sourcePoint" />
            <mxPoint x="510" y="322" as="targetPoint" />
          </mxGeometry>
        </mxCell>
        <mxCell id="faDCZ2szutkNi9MoBmBI-11" value="" style="endArrow=classic;html=1;rounded=0;exitX=0.5;exitY=1;exitDx=0;exitDy=0;entryX=0.595;entryY=0.429;entryDx=0;entryDy=0;entryPerimeter=0;" parent="1" source="faDCZ2szutkNi9MoBmBI-12" target="MxwIq80tktja_db-DEHB-5" edge="1">
          <mxGeometry width="50" height="50" relative="1" as="geometry">
            <mxPoint x="160" y="442" as="sourcePoint" />
            <mxPoint x="508.00000000000045" y="482.288" as="targetPoint" />
          </mxGeometry>
        </mxCell>
        <mxCell id="faDCZ2szutkNi9MoBmBI-13" value="" style="endArrow=classic;html=1;rounded=0;exitX=0.5;exitY=1;exitDx=0;exitDy=0;" parent="1" edge="1">
          <mxGeometry width="50" height="50" relative="1" as="geometry">
            <mxPoint x="70" y="240" as="sourcePoint" />
            <mxPoint x="70" y="300" as="targetPoint" />
          </mxGeometry>
        </mxCell>
        <mxCell id="faDCZ2szutkNi9MoBmBI-25" style="edgeStyle=orthogonalEdgeStyle;rounded=0;orthogonalLoop=1;jettySize=auto;html=1;" parent="1" source="faDCZ2szutkNi9MoBmBI-14" edge="1" target="MxwIq80tktja_db-DEHB-5">
          <mxGeometry relative="1" as="geometry">
            <mxPoint x="70.00000000000045" y="470" as="targetPoint" />
          </mxGeometry>
        </mxCell>
        <mxCell id="faDCZ2szutkNi9MoBmBI-14" value="Signed in" style="rounded=1;whiteSpace=wrap;html=1;" parent="1" vertex="1">
          <mxGeometry x="10" y="300" width="120" height="60" as="geometry" />
        </mxCell>
        <mxCell id="faDCZ2szutkNi9MoBmBI-19" value="" style="endArrow=classic;html=1;rounded=0;" parent="1" target="faDCZ2szutkNi9MoBmBI-10" edge="1">
          <mxGeometry width="50" height="50" relative="1" as="geometry">
            <mxPoint x="510" y="242" as="sourcePoint" />
            <mxPoint x="510" y="322" as="targetPoint" />
          </mxGeometry>
        </mxCell>
        <mxCell id="faDCZ2szutkNi9MoBmBI-10" value="Login State" style="rounded=1;whiteSpace=wrap;html=1;" parent="1" vertex="1">
          <mxGeometry x="450" y="272" width="120" height="60" as="geometry" />
        </mxCell>
        <mxCell id="faDCZ2szutkNi9MoBmBI-20" value="" style="endArrow=classic;html=1;rounded=0;exitX=0.5;exitY=1;exitDx=0;exitDy=0;" parent="1" source="faDCZ2szutkNi9MoBmBI-10" target="faDCZ2szutkNi9MoBmBI-12" edge="1">
          <mxGeometry width="50" height="50" relative="1" as="geometry">
            <mxPoint x="510" y="332" as="sourcePoint" />
            <mxPoint x="510" y="442" as="targetPoint" />
          </mxGeometry>
        </mxCell>
        <mxCell id="faDCZ2szutkNi9MoBmBI-12" value="Signed in" style="rounded=1;whiteSpace=wrap;html=1;" parent="1" vertex="1">
          <mxGeometry x="450" y="360" width="120" height="60" as="geometry" />
        </mxCell>
        <mxCell id="MxwIq80tktja_db-DEHB-11" style="edgeStyle=orthogonalEdgeStyle;rounded=0;orthogonalLoop=1;jettySize=auto;html=1;exitX=0.5;exitY=1;exitDx=0;exitDy=0;entryX=0.53;entryY=0.327;entryDx=0;entryDy=0;entryPerimeter=0;" edge="1" parent="1" source="faDCZ2szutkNi9MoBmBI-21" target="MxwIq80tktja_db-DEHB-9">
          <mxGeometry relative="1" as="geometry">
            <mxPoint x="455" y="660" as="targetPoint" />
          </mxGeometry>
        </mxCell>
        <mxCell id="faDCZ2szutkNi9MoBmBI-21" value="Main Page (Home)" style="rounded=1;whiteSpace=wrap;html=1;" parent="1" vertex="1">
          <mxGeometry x="395" y="560" width="120" height="60" as="geometry" />
        </mxCell>
        <mxCell id="faDCZ2szutkNi9MoBmBI-23" value="" style="endArrow=classic;html=1;rounded=0;exitX=0.435;exitY=1.051;exitDx=0;exitDy=0;exitPerimeter=0;entryX=0.957;entryY=0.286;entryDx=0;entryDy=0;entryPerimeter=0;" parent="1" source="faDCZ2szutkNi9MoBmBI-7" target="MxwIq80tktja_db-DEHB-5" edge="1">
          <mxGeometry width="50" height="50" relative="1" as="geometry">
            <mxPoint x="30" y="320" as="sourcePoint" />
            <mxPoint x="730" y="380" as="targetPoint" />
            <Array as="points">
              <mxPoint x="805" y="240" />
            </Array>
          </mxGeometry>
        </mxCell>
        <mxCell id="faDCZ2szutkNi9MoBmBI-24" value="User Does not register/login" style="text;html=1;align=center;verticalAlign=middle;resizable=0;points=[];autosize=1;strokeColor=none;fillColor=none;" parent="1" vertex="1">
          <mxGeometry x="660" y="210" width="170" height="30" as="geometry" />
        </mxCell>
        <mxCell id="MxwIq80tktja_db-DEHB-5" value="" style="shape=line;html=1;strokeWidth=6;strokeColor=#ff0000;" vertex="1" parent="1">
          <mxGeometry x="20" y="480" width="820" height="10" as="geometry" />
        </mxCell>
        <mxCell id="MxwIq80tktja_db-DEHB-6" value="" style="edgeStyle=orthogonalEdgeStyle;html=1;verticalAlign=bottom;endArrow=open;endSize=8;strokeColor=#ff0000;rounded=0;entryX=0.5;entryY=0;entryDx=0;entryDy=0;" edge="1" source="MxwIq80tktja_db-DEHB-5" parent="1" target="faDCZ2szutkNi9MoBmBI-21">
          <mxGeometry relative="1" as="geometry">
            <mxPoint x="510" y="570" as="targetPoint" />
          </mxGeometry>
        </mxCell>
        <mxCell id="MxwIq80tktja_db-DEHB-15" style="edgeStyle=orthogonalEdgeStyle;rounded=0;orthogonalLoop=1;jettySize=auto;html=1;" edge="1" parent="1" source="MxwIq80tktja_db-DEHB-9">
          <mxGeometry relative="1" as="geometry">
            <mxPoint x="50" y="729.9999999999998" as="targetPoint" />
            <Array as="points">
              <mxPoint x="50" y="700" />
              <mxPoint x="50" y="700" />
            </Array>
          </mxGeometry>
        </mxCell>
        <mxCell id="MxwIq80tktja_db-DEHB-9" value="" style="shape=line;html=1;strokeWidth=6;strokeColor=#ff0000;" vertex="1" parent="1">
          <mxGeometry x="20" y="660" width="820" height="10" as="geometry" />
        </mxCell>
        <mxCell id="MxwIq80tktja_db-DEHB-16" value="User clicks &quot;See more&quot; button" style="text;html=1;align=center;verticalAlign=middle;resizable=0;points=[];autosize=1;strokeColor=none;fillColor=none;" vertex="1" parent="1">
          <mxGeometry x="50" y="678" width="180" height="30" as="geometry" />
        </mxCell>
        <mxCell id="MxwIq80tktja_db-DEHB-18" style="edgeStyle=orthogonalEdgeStyle;rounded=0;orthogonalLoop=1;jettySize=auto;html=1;" edge="1" parent="1" source="MxwIq80tktja_db-DEHB-17">
          <mxGeometry relative="1" as="geometry">
            <mxPoint x="60" y="839.9999999999998" as="targetPoint" />
          </mxGeometry>
        </mxCell>
        <mxCell id="MxwIq80tktja_db-DEHB-17" value="Information Page" style="rounded=1;whiteSpace=wrap;html=1;" vertex="1" parent="1">
          <mxGeometry y="730" width="120" height="60" as="geometry" />
        </mxCell>
        <mxCell id="MxwIq80tktja_db-DEHB-22" style="edgeStyle=orthogonalEdgeStyle;rounded=0;orthogonalLoop=1;jettySize=auto;html=1;entryX=0;entryY=0.5;entryDx=0;entryDy=0;" edge="1" parent="1" source="MxwIq80tktja_db-DEHB-19" target="faDCZ2szutkNi9MoBmBI-21">
          <mxGeometry relative="1" as="geometry">
            <Array as="points">
              <mxPoint x="-10" y="870" />
              <mxPoint x="-10" y="590" />
            </Array>
          </mxGeometry>
        </mxCell>
        <mxCell id="MxwIq80tktja_db-DEHB-19" value="Quiz Participation" style="rounded=1;whiteSpace=wrap;html=1;" vertex="1" parent="1">
          <mxGeometry y="840" width="120" height="60" as="geometry" />
        </mxCell>
        <mxCell id="MxwIq80tktja_db-DEHB-20" value="User clicks start quiz" style="text;html=1;align=center;verticalAlign=middle;resizable=0;points=[];autosize=1;strokeColor=none;fillColor=none;" vertex="1" parent="1">
          <mxGeometry x="60" y="800" width="130" height="30" as="geometry" />
        </mxCell>
      </root>
    </mxGraphModel>
  </diagram>
</mxfile>
